<svg xmlns="http://www.w3.org/2000/svg" width="280" height="300" viewBox="0 0 280 300">
  <style>text { font-family: 'Segoe UI', Arial, sans-serif; }</style>
  <rect width="280" height="300" fill="#F8FAFC" rx="12"/>
  <text x="140" y="28" text-anchor="middle" font-size="14" font-weight="600" fill="#475569">Duck Superhero (cape + mask)</text>

  <!-- Large Fab 112px -->
  <circle cx="140" cy="140" r="56" fill="#2563EB"/>
  <g transform="translate(98, 100) scale(0.58)">
    <!-- Cape -->
    <path d="M40 60 Q30 90 20 115 Q50 105 70 115 Q90 105 110 115 Q100 90 95 60Z" fill="#EF4444" opacity="0.85"/>
    <path d="M40 60 Q30 90 20 115 Q50 105 70 115" fill="#DC2626" opacity="0.4"/>
    <!-- Body -->
    <ellipse cx="70" cy="82" rx="42" ry="30" fill="#FCD34D"/>
    <!-- Head -->
    <circle cx="44" cy="44" r="24" fill="#FCD34D"/>
    <!-- Beak -->
    <path d="M24 40L10 44L24 48Z" fill="#FB923C"/>
    <!-- Mask -->
    <path d="M26 34 Q35 28 52 30 Q58 30 62 34 L60 40 Q52 36 44 36 Q36 36 28 40Z" fill="#2563EB"/>
    <!-- Eye holes in mask -->
    <ellipse cx="38" cy="37" rx="5" ry="4" fill="#FCD34D"/>
    <!-- Eye -->
    <circle cx="38" cy="38" r="3.5" fill="#292524"/>
    <circle cx="37" cy="37" r="1.2" fill="white"/>
    <!-- Wing accent -->
    <path d="M56 74C64 66 82 68 94 78" stroke="#FBBF24" stroke-width="3" stroke-linecap="round" fill="none"/>
    <!-- Lightning bolt on chest -->
    <polygon points="65,68 72,68 68,76 76,76 64,90 67,80 60,80" fill="#FACC15"/>
  </g>

  <!-- Small 40px -->
  <circle cx="80" cy="260" r="20" fill="#2563EB"/>
  <g transform="translate(62, 242) scale(0.25)">
    <path d="M40 60 Q30 90 20 115 Q50 105 70 115 Q90 105 110 115 Q100 90 95 60Z" fill="#EF4444" opacity="0.85"/>
    <ellipse cx="70" cy="82" rx="42" ry="30" fill="#FCD34D"/>
    <circle cx="44" cy="44" r="24" fill="#FCD34D"/>
    <path d="M24 40L10 44L24 48Z" fill="#FB923C"/>
    <path d="M26 34 Q35 28 52 30 Q58 30 62 34 L60 40 Q52 36 44 36 Q36 36 28 40Z" fill="#2563EB"/>
    <ellipse cx="38" cy="37" rx="5" ry="4" fill="#FCD34D"/>
    <circle cx="38" cy="38" r="3.5" fill="#292524"/>
    <circle cx="37" cy="37" r="1.2" fill="white"/>
    <polygon points="65,68 72,68 68,76 76,76 64,90 67,80 60,80" fill="#FACC15"/>
  </g>
  <text x="108" y="264" font-size="11" fill="#64748B">40px</text>

  <!-- Small 28px -->
  <circle cx="170" cy="260" r="14" fill="#2563EB"/>
  <g transform="translate(156, 248) scale(0.18)">
    <path d="M40 60 Q30 90 20 115 Q50 105 70 115 Q90 105 110 115 Q100 90 95 60Z" fill="#EF4444" opacity="0.85"/>
    <ellipse cx="70" cy="82" rx="42" ry="30" fill="#FCD34D"/>
    <circle cx="44" cy="44" r="24" fill="#FCD34D"/>
    <path d="M24 40L10 44L24 48Z" fill="#FB923C"/>
    <path d="M26 34 Q35 28 52 30 Q58 30 62 34 L60 40 Q52 36 44 36 Q36 36 28 40Z" fill="#2563EB"/>
    <ellipse cx="38" cy="37" rx="5" ry="4" fill="#FCD34D"/>
    <circle cx="38" cy="38" r="3.5" fill="#292524"/>
    <polygon points="65,68 72,68 68,76 76,76 64,90 67,80 60,80" fill="#FACC15"/>
  </g>
  <text x="192" y="264" font-size="11" fill="#64748B">28px</text>
</svg>
