<svg xmlns="http://www.w3.org/2000/svg" width="280" height="300" viewBox="0 0 280 300">
  <style>text { font-family: 'Segoe UI', Arial, sans-serif; }</style>
  <rect width="280" height="300" fill="#F8FAFC" rx="12"/>
  <text x="140" y="28" text-anchor="middle" font-size="14" font-weight="600" fill="#475569">Duck + Magic Wand</text>

  <!-- Large Fab 112px -->
  <circle cx="140" cy="140" r="56" fill="#2563EB"/>
  <g transform="translate(98, 100) scale(0.58)">
    <!-- Body -->
    <ellipse cx="70" cy="82" rx="42" ry="30" fill="#FCD34D"/>
    <!-- Head -->
    <circle cx="44" cy="44" r="24" fill="#FCD34D"/>
    <!-- Beak -->
    <path d="M24 40L10 44L24 48Z" fill="#FB923C"/>
    <!-- Eye -->
    <circle cx="38" cy="38" r="3.5" fill="#292524"/>
    <circle cx="37" cy="37" r="1.2" fill="white"/>
    <!-- Wing — raised, holding wand -->
    <path d="M58 72 Q72 60 88 62" stroke="#FBBF24" stroke-width="3.5" stroke-linecap="round" fill="none"/>
    <!-- Wand stick — starts from wing tip, goes up-right -->
    <line x1="86" y1="63" x2="115" y2="24" stroke="#A78BFA" stroke-width="3.5" stroke-linecap="round"/>
    <!-- Wand star -->
    <polygon points="115,14 117.5,21 125,21 119,26 121,33 115,29 109,33 111,26 105,21 112.5,21" fill="#FACC15"/>
    <!-- Sparkles around star -->
    <circle cx="103" cy="16" r="1.8" fill="#FDE68A"/>
    <circle cx="127" cy="12" r="1.4" fill="#FDE68A"/>
    <circle cx="124" cy="35" r="1.5" fill="#FDE68A"/>
    <circle cx="100" cy="30" r="1.2" fill="#FDE68A"/>
  </g>

  <!-- Small 40px -->
  <circle cx="80" cy="260" r="20" fill="#2563EB"/>
  <g transform="translate(62, 242) scale(0.25)">
    <ellipse cx="70" cy="82" rx="42" ry="30" fill="#FCD34D"/>
    <circle cx="44" cy="44" r="24" fill="#FCD34D"/>
    <path d="M24 40L10 44L24 48Z" fill="#FB923C"/>
    <circle cx="38" cy="38" r="3.5" fill="#292524"/>
    <circle cx="37" cy="37" r="1.2" fill="white"/>
    <path d="M58 72 Q72 60 88 62" stroke="#FBBF24" stroke-width="3.5" stroke-linecap="round" fill="none"/>
    <line x1="86" y1="63" x2="115" y2="24" stroke="#A78BFA" stroke-width="3.5" stroke-linecap="round"/>
    <polygon points="115,14 117.5,21 125,21 119,26 121,33 115,29 109,33 111,26 105,21 112.5,21" fill="#FACC15"/>
  </g>
  <text x="108" y="264" font-size="11" fill="#64748B">40px</text>

  <!-- Small 28px -->
  <circle cx="170" cy="260" r="14" fill="#2563EB"/>
  <g transform="translate(156, 248) scale(0.18)">
    <ellipse cx="70" cy="82" rx="42" ry="30" fill="#FCD34D"/>
    <circle cx="44" cy="44" r="24" fill="#FCD34D"/>
    <path d="M24 40L10 44L24 48Z" fill="#FB923C"/>
    <circle cx="38" cy="38" r="3.5" fill="#292524"/>
    <path d="M58 72 Q72 60 88 62" stroke="#FBBF24" stroke-width="3.5" stroke-linecap="round" fill="none"/>
    <line x1="86" y1="63" x2="115" y2="24" stroke="#A78BFA" stroke-width="3.5" stroke-linecap="round"/>
    <polygon points="115,14 117.5,21 125,21 119,26 121,33 115,29 109,33 111,26 105,21 112.5,21" fill="#FACC15"/>
  </g>
  <text x="192" y="264" font-size="11" fill="#64748B">28px</text>
</svg>
