<svg xmlns="http://www.w3.org/2000/svg" width="280" height="300" viewBox="0 0 280 300">
  <style>text { font-family: 'Segoe UI', Arial, sans-serif; }</style>
  <rect width="280" height="300" fill="#F8FAFC" rx="12"/>
  <text x="140" y="28" text-anchor="middle" font-size="14" font-weight="600" fill="#475569">Duck Superhero (cape + mask)</text>

  <!-- Large Fab 112px -->
  <circle cx="140" cy="140" r="56" fill="#2563EB"/>
  <g transform="translate(98, 100) scale(0.58)">
    <!-- Cape — attached at neck/back, flowing down-right behind the duck -->
    <path d="M62 52 Q80 48 95 55 Q110 70 118 100 Q115 115 108 125 Q95 120 85 108 Q78 95 70 72Z" fill="#DC2626"/>
    <path d="M62 52 Q80 48 95 55 Q100 65 95 80 Q85 75 70 72Z" fill="#EF4444" opacity="0.5"/>
    <!-- Body -->
    <ellipse cx="70" cy="82" rx="42" ry="30" fill="#FCD34D"/>
    <!-- Head -->
    <circle cx="44" cy="44" r="24" fill="#FCD34D"/>
    <!-- Beak -->
    <path d="M24 40L10 44L24 48Z" fill="#FB923C"/>
    <!-- Mask — band across eyes -->
    <path d="M24 34 Q34 28 54 30 Q60 31 64 36 L62 42 Q54 37 44 37 Q34 37 26 42Z" fill="#1E293B"/>
    <!-- Eye hole -->
    <ellipse cx="38" cy="38" rx="5.5" ry="4.5" fill="#FCD34D"/>
    <!-- Eye -->
    <circle cx="38" cy="38" r="3.5" fill="#292524"/>
    <circle cx="37" cy="37" r="1.2" fill="white"/>
    <!-- Wing accent -->
    <path d="M56 74C64 66 82 68 94 78" stroke="#FBBF24" stroke-width="3" stroke-linecap="round" fill="none"/>
    <!-- Lightning bolt on chest -->
    <polygon points="63,68 70,68 66,76 74,76 62,90 65,80 58,80" fill="#FACC15"/>
  </g>

  <!-- Small 40px -->
  <circle cx="80" cy="260" r="20" fill="#2563EB"/>
  <g transform="translate(62, 242) scale(0.25)">
    <path d="M62 52 Q80 48 95 55 Q110 70 118 100 Q115 115 108 125 Q95 120 85 108 Q78 95 70 72Z" fill="#DC2626"/>
    <ellipse cx="70" cy="82" rx="42" ry="30" fill="#FCD34D"/>
    <circle cx="44" cy="44" r="24" fill="#FCD34D"/>
    <path d="M24 40L10 44L24 48Z" fill="#FB923C"/>
    <path d="M24 34 Q34 28 54 30 Q60 31 64 36 L62 42 Q54 37 44 37 Q34 37 26 42Z" fill="#1E293B"/>
    <ellipse cx="38" cy="38" rx="5.5" ry="4.5" fill="#FCD34D"/>
    <circle cx="38" cy="38" r="3.5" fill="#292524"/>
    <circle cx="37" cy="37" r="1.2" fill="white"/>
    <polygon points="63,68 70,68 66,76 74,76 62,90 65,80 58,80" fill="#FACC15"/>
  </g>
  <text x="108" y="264" font-size="11" fill="#64748B">40px</text>

  <!-- Small 28px -->
  <circle cx="170" cy="260" r="14" fill="#2563EB"/>
  <g transform="translate(156, 248) scale(0.18)">
    <path d="M62 52 Q80 48 95 55 Q110 70 118 100 Q115 115 108 125 Q95 120 85 108 Q78 95 70 72Z" fill="#DC2626"/>
    <ellipse cx="70" cy="82" rx="42" ry="30" fill="#FCD34D"/>
    <circle cx="44" cy="44" r="24" fill="#FCD34D"/>
    <path d="M24 40L10 44L24 48Z" fill="#FB923C"/>
    <path d="M24 34 Q34 28 54 30 Q60 31 64 36 L62 42 Q54 37 44 37 Q34 37 26 42Z" fill="#1E293B"/>
    <ellipse cx="38" cy="38" rx="5.5" ry="4.5" fill="#FCD34D"/>
    <circle cx="38" cy="38" r="3.5" fill="#292524"/>
    <polygon points="63,68 70,68 66,76 74,76 62,90 65,80 58,80" fill="#FACC15"/>
  </g>
  <text x="192" y="264" font-size="11" fill="#64748B">28px</text>
</svg>
